# xmcd
# 
# Track frame offsets:
#     187
#     12990
#     29822
#     46620
#     61240
#     75532
#     91825
#     111472
#     126980
#     143110
#     153037
# 
# Disc length: 2248
# 
# Revision: 3
# Processed by: cddbd v1.5.2PL0 Copyright (c) Steve Scherf et al.
# Submitted via: fre:ac v1.1beta1pre5
# 
DISCID=8708c60b
DTITLE=Isabelle Antena - Camino Del Sol
DYEAR=1988
DGENRE=Vocal
TTITLE0=The Boy from Ipanema イパネマの少年
TTITLE1=Camino del Sol
TTITLE2=To Climb the Cliff
TTITLE3=Silly Things
TTITLE4=Sissexa
TTITLE5=Achilles
TTITLE6=Bye Bye Papaye
TTITLE7=Noelle a Hawaii
TTITLE8=Les Demoiselles de Rochefort ロシェフォールの恋人たち
TTITLE9=Spiral Staircase
TTITLE10=Unable
EXTD=YEAR: 1988
EXTT0=
EXTT1=
EXTT2=
EXTT3=
EXTT4=
EXTT5=
EXTT6=
EXTT7=
EXTT8=
EXTT9=
EXTT10=
PLAYORDER=
